# xmcd CD database file
#
# Track frame offsets:
#	150
#	14124
#	30975
#	49642
#	65752
#	83669
#	96276
#	115212
#	133351
#	146716
#
# Disc length: 2140 seconds
#
# Revision: 0
# Processed by: cddbd v1.5.2PL0 Copyright (c) Steve Scherf et al.
# Submitted via: CDex 1.51
#
DISCID=8e085a0a
DTITLE=Scotty Anderson - Sleight of Hand
DYEAR=1985
DGENRE=Jazz
TTITLE0=High Heel Sneakers
TTITLE1=Only You
TTITLE2=Green Dolphin Street
TTITLE3=Mister Bojangles
TTITLE4=Ode To Billy Joe
TTITLE5=Mystery Train
TTITLE6=All Blues
TTITLE7=Django's Castle
TTITLE8=Heart Over Mind
TTITLE9=Caravan
EXTD=YEAR: 1985
EXTT0=
EXTT1=
EXTT2=
EXTT3=
EXTT4=
EXTT5=
EXTT6=
EXTT7=
EXTT8=
EXTT9=
PLAYORDER=
